<mxfile host="app.diagrams.net" modified="2023-10-03T17:10:32.961Z" agent="Mozilla/5.0 (Windows NT 10.0; Win64; x64) AppleWebKit/537.36 (KHTML, like Gecko) Chrome/117.0.0.0 Safari/537.36 Edg/117.0.2045.47" etag="d9cCa7DkO8bBDlT4P4ii" version="22.0.0" type="device">
  <diagram name="Page-1" id="olCBzryS_kYfZVr9c0KA">
    <mxGraphModel dx="1812" dy="2211" grid="1" gridSize="10" guides="1" tooltips="1" connect="1" arrows="1" fold="1" page="1" pageScale="1" pageWidth="850" pageHeight="1100" math="0" shadow="0">
      <root>
        <mxCell id="0" />
        <mxCell id="1" parent="0" />
        <mxCell id="hdgHxHH95V__kCnSBClU-19" style="rounded=0;orthogonalLoop=1;jettySize=auto;html=1;" parent="1" source="hdgHxHH95V__kCnSBClU-1" target="hdgHxHH95V__kCnSBClU-5" edge="1">
          <mxGeometry relative="1" as="geometry" />
        </mxCell>
        <mxCell id="hdgHxHH95V__kCnSBClU-21" value="init&#39;s" style="edgeLabel;html=1;align=center;verticalAlign=middle;resizable=0;points=[];" parent="hdgHxHH95V__kCnSBClU-19" vertex="1" connectable="0">
          <mxGeometry x="0.1791" y="2" relative="1" as="geometry">
            <mxPoint x="1" as="offset" />
          </mxGeometry>
        </mxCell>
        <mxCell id="hdgHxHH95V__kCnSBClU-24" style="rounded=0;orthogonalLoop=1;jettySize=auto;html=1;entryX=0.5;entryY=0;entryDx=0;entryDy=0;" parent="1" source="hdgHxHH95V__kCnSBClU-1" target="hdgHxHH95V__kCnSBClU-22" edge="1">
          <mxGeometry relative="1" as="geometry" />
        </mxCell>
        <mxCell id="hdgHxHH95V__kCnSBClU-25" value="Init&#39;s" style="edgeLabel;html=1;align=center;verticalAlign=middle;resizable=0;points=[];" parent="hdgHxHH95V__kCnSBClU-24" vertex="1" connectable="0">
          <mxGeometry x="0.1019" y="6" relative="1" as="geometry">
            <mxPoint as="offset" />
          </mxGeometry>
        </mxCell>
        <mxCell id="hdgHxHH95V__kCnSBClU-33" style="rounded=0;orthogonalLoop=1;jettySize=auto;html=1;entryX=0.5;entryY=0;entryDx=0;entryDy=0;" parent="1" source="hdgHxHH95V__kCnSBClU-1" target="hdgHxHH95V__kCnSBClU-7" edge="1">
          <mxGeometry relative="1" as="geometry" />
        </mxCell>
        <mxCell id="hdgHxHH95V__kCnSBClU-34" value="Runs @ Startup" style="edgeLabel;html=1;align=center;verticalAlign=middle;resizable=0;points=[];" parent="hdgHxHH95V__kCnSBClU-33" vertex="1" connectable="0">
          <mxGeometry x="0.023" y="-8" relative="1" as="geometry">
            <mxPoint as="offset" />
          </mxGeometry>
        </mxCell>
        <mxCell id="hdgHxHH95V__kCnSBClU-1" value="Server.py" style="rounded=0;whiteSpace=wrap;html=1;" parent="1" vertex="1">
          <mxGeometry x="340" y="-110" width="115" height="70" as="geometry" />
        </mxCell>
        <mxCell id="hdgHxHH95V__kCnSBClU-3" value="Plugin02 - Red Team Chat Plugin" style="sketch=0;aspect=fixed;pointerEvents=1;shadow=0;dashed=0;html=1;strokeColor=#C73500;labelPosition=center;verticalLabelPosition=bottom;verticalAlign=top;align=center;fillColor=#fa6800;shape=mxgraph.mscae.enterprise.plug_and_play;fontColor=#000000;" parent="1" vertex="1">
          <mxGeometry x="395.5" y="540" width="40" height="50" as="geometry" />
        </mxCell>
        <mxCell id="hdgHxHH95V__kCnSBClU-4" value="Plugin03" style="sketch=0;aspect=fixed;pointerEvents=1;shadow=0;dashed=0;html=1;strokeColor=none;labelPosition=center;verticalLabelPosition=bottom;verticalAlign=top;align=center;fillColor=#00188D;shape=mxgraph.mscae.enterprise.plug_and_play" parent="1" vertex="1">
          <mxGeometry x="620.5" y="540" width="40" height="50" as="geometry" />
        </mxCell>
        <mxCell id="hdgHxHH95V__kCnSBClU-5" value="Data Class" style="rounded=0;whiteSpace=wrap;html=1;" parent="1" vertex="1">
          <mxGeometry x="230.5" y="150" width="115" height="40" as="geometry" />
        </mxCell>
        <mxCell id="hdgHxHH95V__kCnSBClU-12" style="rounded=0;orthogonalLoop=1;jettySize=auto;html=1;entryX=1;entryY=0.5;entryDx=0;entryDy=0;dashed=1;endArrow=none;endFill=0;startArrow=classic;startFill=1;" parent="1" source="hdgHxHH95V__kCnSBClU-6" target="hdgHxHH95V__kCnSBClU-5" edge="1">
          <mxGeometry relative="1" as="geometry" />
        </mxCell>
        <mxCell id="hdgHxHH95V__kCnSBClU-20" value="Passed To" style="edgeLabel;html=1;align=center;verticalAlign=middle;resizable=0;points=[];" parent="hdgHxHH95V__kCnSBClU-12" vertex="1" connectable="0">
          <mxGeometry x="-0.0385" y="-7" relative="1" as="geometry">
            <mxPoint as="offset" />
          </mxGeometry>
        </mxCell>
        <mxCell id="hdgHxHH95V__kCnSBClU-6" value="BasePlugin" style="rounded=0;whiteSpace=wrap;html=1;" parent="1" vertex="1">
          <mxGeometry x="358" y="260" width="115" height="40" as="geometry" />
        </mxCell>
        <mxCell id="hdgHxHH95V__kCnSBClU-29" style="rounded=0;orthogonalLoop=1;jettySize=auto;html=1;fillColor=#d5e8d4;strokeColor=#82b366;" parent="1" source="hdgHxHH95V__kCnSBClU-7" target="hdgHxHH95V__kCnSBClU-4" edge="1">
          <mxGeometry relative="1" as="geometry" />
        </mxCell>
        <mxCell id="hdgHxHH95V__kCnSBClU-32" value="init&#39;s" style="edgeLabel;html=1;align=center;verticalAlign=middle;resizable=0;points=[];" parent="hdgHxHH95V__kCnSBClU-29" vertex="1" connectable="0">
          <mxGeometry x="-0.2421" y="7" relative="1" as="geometry">
            <mxPoint as="offset" />
          </mxGeometry>
        </mxCell>
        <mxCell id="hdgHxHH95V__kCnSBClU-40" style="edgeStyle=orthogonalEdgeStyle;rounded=0;orthogonalLoop=1;jettySize=auto;html=1;" parent="1" source="hdgHxHH95V__kCnSBClU-7" target="hdgHxHH95V__kCnSBClU-39" edge="1">
          <mxGeometry relative="1" as="geometry" />
        </mxCell>
        <mxCell id="hdgHxHH95V__kCnSBClU-7" value="PluginLoader" style="rounded=0;whiteSpace=wrap;html=1;" parent="1" vertex="1">
          <mxGeometry x="660.5" y="150" width="115" height="40" as="geometry" />
        </mxCell>
        <mxCell id="hdgHxHH95V__kCnSBClU-13" style="rounded=0;orthogonalLoop=1;jettySize=auto;html=1;entryX=0.588;entryY=0.02;entryDx=0;entryDy=0;entryPerimeter=0;dashed=1;startArrow=classic;startFill=1;" parent="1" source="hdgHxHH95V__kCnSBClU-6" target="hdgHxHH95V__kCnSBClU-2" edge="1">
          <mxGeometry relative="1" as="geometry" />
        </mxCell>
        <mxCell id="hdgHxHH95V__kCnSBClU-16" value="Inhereted" style="edgeLabel;html=1;align=center;verticalAlign=middle;resizable=0;points=[];" parent="hdgHxHH95V__kCnSBClU-13" vertex="1" connectable="0">
          <mxGeometry x="-0.0452" y="-7" relative="1" as="geometry">
            <mxPoint as="offset" />
          </mxGeometry>
        </mxCell>
        <mxCell id="hdgHxHH95V__kCnSBClU-14" style="rounded=0;orthogonalLoop=1;jettySize=auto;html=1;entryX=0.388;entryY=-0.02;entryDx=0;entryDy=0;entryPerimeter=0;dashed=1;startArrow=classic;startFill=1;" parent="1" source="hdgHxHH95V__kCnSBClU-6" target="hdgHxHH95V__kCnSBClU-3" edge="1">
          <mxGeometry relative="1" as="geometry" />
        </mxCell>
        <mxCell id="hdgHxHH95V__kCnSBClU-17" value="Inhereted" style="edgeLabel;html=1;align=center;verticalAlign=middle;resizable=0;points=[];" parent="hdgHxHH95V__kCnSBClU-14" vertex="1" connectable="0">
          <mxGeometry x="-0.0904" y="3" relative="1" as="geometry">
            <mxPoint as="offset" />
          </mxGeometry>
        </mxCell>
        <mxCell id="hdgHxHH95V__kCnSBClU-15" style="rounded=0;orthogonalLoop=1;jettySize=auto;html=1;exitX=0.75;exitY=1;exitDx=0;exitDy=0;entryX=0.463;entryY=0.14;entryDx=0;entryDy=0;entryPerimeter=0;dashed=1;startArrow=classic;startFill=1;" parent="1" source="hdgHxHH95V__kCnSBClU-6" target="hdgHxHH95V__kCnSBClU-4" edge="1">
          <mxGeometry relative="1" as="geometry" />
        </mxCell>
        <mxCell id="hdgHxHH95V__kCnSBClU-18" value="Inhereted" style="edgeLabel;html=1;align=center;verticalAlign=middle;resizable=0;points=[];" parent="hdgHxHH95V__kCnSBClU-15" vertex="1" connectable="0">
          <mxGeometry x="-0.1169" y="-1" relative="1" as="geometry">
            <mxPoint as="offset" />
          </mxGeometry>
        </mxCell>
        <mxCell id="hdgHxHH95V__kCnSBClU-22" value="Flask instance" style="rounded=0;whiteSpace=wrap;html=1;" parent="1" vertex="1">
          <mxGeometry x="470" y="150" width="115" height="40" as="geometry" />
        </mxCell>
        <mxCell id="hdgHxHH95V__kCnSBClU-23" style="rounded=0;orthogonalLoop=1;jettySize=auto;html=1;entryX=0.647;entryY=0.088;entryDx=0;entryDy=0;entryPerimeter=0;dashed=1;" parent="1" source="hdgHxHH95V__kCnSBClU-22" target="hdgHxHH95V__kCnSBClU-6" edge="1">
          <mxGeometry relative="1" as="geometry" />
        </mxCell>
        <mxCell id="hdgHxHH95V__kCnSBClU-26" value="Passed to" style="edgeLabel;html=1;align=center;verticalAlign=middle;resizable=0;points=[];" parent="hdgHxHH95V__kCnSBClU-23" vertex="1" connectable="0">
          <mxGeometry x="-0.3424" y="1" relative="1" as="geometry">
            <mxPoint as="offset" />
          </mxGeometry>
        </mxCell>
        <mxCell id="hdgHxHH95V__kCnSBClU-27" style="rounded=0;orthogonalLoop=1;jettySize=auto;html=1;entryX=0.438;entryY=0.42;entryDx=0;entryDy=0;entryPerimeter=0;fillColor=#d5e8d4;strokeColor=#82b366;" parent="1" source="hdgHxHH95V__kCnSBClU-7" target="hdgHxHH95V__kCnSBClU-2" edge="1">
          <mxGeometry relative="1" as="geometry" />
        </mxCell>
        <mxCell id="hdgHxHH95V__kCnSBClU-30" value="init&#39;s" style="edgeLabel;html=1;align=center;verticalAlign=middle;resizable=0;points=[];" parent="hdgHxHH95V__kCnSBClU-27" vertex="1" connectable="0">
          <mxGeometry x="-0.7714" y="-4" relative="1" as="geometry">
            <mxPoint as="offset" />
          </mxGeometry>
        </mxCell>
        <mxCell id="hdgHxHH95V__kCnSBClU-28" style="rounded=0;orthogonalLoop=1;jettySize=auto;html=1;entryX=0.688;entryY=0.38;entryDx=0;entryDy=0;entryPerimeter=0;fillColor=#d5e8d4;strokeColor=#82b366;" parent="1" source="hdgHxHH95V__kCnSBClU-7" target="hdgHxHH95V__kCnSBClU-3" edge="1">
          <mxGeometry relative="1" as="geometry" />
        </mxCell>
        <mxCell id="hdgHxHH95V__kCnSBClU-31" value="init&#39;s" style="edgeLabel;html=1;align=center;verticalAlign=middle;resizable=0;points=[];" parent="hdgHxHH95V__kCnSBClU-28" vertex="1" connectable="0">
          <mxGeometry x="-0.421" y="5" relative="1" as="geometry">
            <mxPoint as="offset" />
          </mxGeometry>
        </mxCell>
        <mxCell id="ZEp8uU83ZjOSxmy_8YBV-2" style="rounded=0;orthogonalLoop=1;jettySize=auto;html=1;entryX=0.5;entryY=0;entryDx=0;entryDy=0;fillColor=#dae8fc;strokeColor=#6c8ebf;" parent="1" source="hdgHxHH95V__kCnSBClU-35" target="ZEp8uU83ZjOSxmy_8YBV-1" edge="1">
          <mxGeometry relative="1" as="geometry" />
        </mxCell>
        <mxCell id="ZEp8uU83ZjOSxmy_8YBV-19" value="Endpoint" style="edgeLabel;html=1;align=center;verticalAlign=middle;resizable=0;points=[];" parent="ZEp8uU83ZjOSxmy_8YBV-2" vertex="1" connectable="0">
          <mxGeometry x="-0.0407" y="4" relative="1" as="geometry">
            <mxPoint x="-1" as="offset" />
          </mxGeometry>
        </mxCell>
        <mxCell id="hdgHxHH95V__kCnSBClU-35" value="Sub Functions &amp;amp; Plugin Stuff" style="rounded=0;whiteSpace=wrap;html=1;" parent="1" vertex="1">
          <mxGeometry x="140" y="630" width="130" height="40" as="geometry" />
        </mxCell>
        <mxCell id="hdgHxHH95V__kCnSBClU-36" value="Sub Functions &amp;amp; Plugin Stuff" style="rounded=0;whiteSpace=wrap;html=1;" parent="1" vertex="1">
          <mxGeometry x="343" y="630" width="130" height="40" as="geometry" />
        </mxCell>
        <mxCell id="ZEp8uU83ZjOSxmy_8YBV-5" style="rounded=0;orthogonalLoop=1;jettySize=auto;html=1;exitX=0.5;exitY=1;exitDx=0;exitDy=0;entryX=0.5;entryY=0;entryDx=0;entryDy=0;" parent="1" source="hdgHxHH95V__kCnSBClU-37" target="ZEp8uU83ZjOSxmy_8YBV-4" edge="1">
          <mxGeometry relative="1" as="geometry" />
        </mxCell>
        <mxCell id="ZEp8uU83ZjOSxmy_8YBV-21" value="Endpoint" style="edgeLabel;html=1;align=center;verticalAlign=middle;resizable=0;points=[];" parent="ZEp8uU83ZjOSxmy_8YBV-5" vertex="1" connectable="0">
          <mxGeometry x="-0.1769" y="10" relative="1" as="geometry">
            <mxPoint x="-1" as="offset" />
          </mxGeometry>
        </mxCell>
        <mxCell id="hdgHxHH95V__kCnSBClU-37" value="Sub Functions &amp;amp; Plugin Stuff" style="rounded=0;whiteSpace=wrap;html=1;" parent="1" vertex="1">
          <mxGeometry x="575.5" y="630" width="130" height="40" as="geometry" />
        </mxCell>
        <mxCell id="hdgHxHH95V__kCnSBClU-2" value="Plugin01 - Listener" style="sketch=0;aspect=fixed;pointerEvents=1;shadow=0;dashed=0;html=1;strokeColor=none;labelPosition=center;verticalLabelPosition=bottom;verticalAlign=top;align=center;fillColor=#00188D;shape=mxgraph.mscae.enterprise.plug_and_play" parent="1" vertex="1">
          <mxGeometry x="190.5" y="540" width="40" height="50" as="geometry" />
        </mxCell>
        <mxCell id="hdgHxHH95V__kCnSBClU-39" value="Loads plugins from&amp;nbsp;&lt;br&gt;PluginEngine/Plugins" style="text;html=1;strokeColor=none;fillColor=none;align=center;verticalAlign=middle;whiteSpace=wrap;rounded=0;" parent="1" vertex="1">
          <mxGeometry x="890" y="155" width="120" height="30" as="geometry" />
        </mxCell>
        <mxCell id="ZEp8uU83ZjOSxmy_8YBV-8" style="rounded=0;orthogonalLoop=1;jettySize=auto;html=1;entryX=0.5;entryY=1;entryDx=0;entryDy=0;fillColor=#dae8fc;strokeColor=#6c8ebf;" parent="1" source="ZEp8uU83ZjOSxmy_8YBV-1" target="ZEp8uU83ZjOSxmy_8YBV-7" edge="1">
          <mxGeometry relative="1" as="geometry" />
        </mxCell>
        <mxCell id="ZEp8uU83ZjOSxmy_8YBV-1" value="SecretControlServer.com/Plugin01/data" style="rounded=0;whiteSpace=wrap;html=1;fillColor=#dae8fc;strokeColor=#6c8ebf;" parent="1" vertex="1">
          <mxGeometry x="-60" y="770" width="250" height="40" as="geometry" />
        </mxCell>
        <mxCell id="ZEp8uU83ZjOSxmy_8YBV-3" value="SecretControlServer.com/Plugin02/chat" style="rounded=0;whiteSpace=wrap;html=1;" parent="1" vertex="1">
          <mxGeometry x="272.5" y="770" width="250" height="40" as="geometry" />
        </mxCell>
        <mxCell id="ZEp8uU83ZjOSxmy_8YBV-4" value="SecretControlServer.com/Plugin03/data" style="rounded=0;whiteSpace=wrap;html=1;" parent="1" vertex="1">
          <mxGeometry x="660.5" y="760" width="250" height="40" as="geometry" />
        </mxCell>
        <mxCell id="ZEp8uU83ZjOSxmy_8YBV-6" style="rounded=0;orthogonalLoop=1;jettySize=auto;html=1;entryX=0.53;entryY=0.1;entryDx=0;entryDy=0;entryPerimeter=0;" parent="1" source="hdgHxHH95V__kCnSBClU-36" target="ZEp8uU83ZjOSxmy_8YBV-3" edge="1">
          <mxGeometry relative="1" as="geometry" />
        </mxCell>
        <mxCell id="ZEp8uU83ZjOSxmy_8YBV-20" value="Endpoint" style="edgeLabel;html=1;align=center;verticalAlign=middle;resizable=0;points=[];" parent="ZEp8uU83ZjOSxmy_8YBV-6" vertex="1" connectable="0">
          <mxGeometry x="-0.0638" y="8" relative="1" as="geometry">
            <mxPoint as="offset" />
          </mxGeometry>
        </mxCell>
        <mxCell id="ZEp8uU83ZjOSxmy_8YBV-24" style="edgeStyle=orthogonalEdgeStyle;rounded=0;orthogonalLoop=1;jettySize=auto;html=1;entryX=0.5;entryY=1;entryDx=0;entryDy=0;fillColor=#f8cecc;strokeColor=#b85450;" parent="1" source="ZEp8uU83ZjOSxmy_8YBV-7" target="ZEp8uU83ZjOSxmy_8YBV-3" edge="1">
          <mxGeometry relative="1" as="geometry" />
        </mxCell>
        <mxCell id="ZEp8uU83ZjOSxmy_8YBV-7" value="Internet" style="image;aspect=fixed;perimeter=ellipsePerimeter;html=1;align=center;shadow=0;dashed=0;spacingTop=3;image=img/lib/active_directory/internet_cloud.svg;" parent="1" vertex="1">
          <mxGeometry x="372.5" y="970" width="50" height="31.5" as="geometry" />
        </mxCell>
        <mxCell id="ZEp8uU83ZjOSxmy_8YBV-13" style="rounded=0;orthogonalLoop=1;jettySize=auto;html=1;fillColor=#dae8fc;strokeColor=#6c8ebf;" parent="1" source="ZEp8uU83ZjOSxmy_8YBV-10" edge="1">
          <mxGeometry relative="1" as="geometry">
            <mxPoint x="400" y="999.9999999999995" as="targetPoint" />
          </mxGeometry>
        </mxCell>
        <mxCell id="ZEp8uU83ZjOSxmy_8YBV-14" value="Communicates" style="edgeLabel;html=1;align=center;verticalAlign=middle;resizable=0;points=[];" parent="ZEp8uU83ZjOSxmy_8YBV-13" vertex="1" connectable="0">
          <mxGeometry x="0.1166" y="4" relative="1" as="geometry">
            <mxPoint as="offset" />
          </mxGeometry>
        </mxCell>
        <mxCell id="ZEp8uU83ZjOSxmy_8YBV-10" value="Plugin01 - External Component&lt;br&gt;Listener @ BadDomain01.com&lt;br&gt;" style="sketch=0;aspect=fixed;pointerEvents=1;shadow=0;dashed=0;html=1;strokeColor=none;labelPosition=center;verticalLabelPosition=bottom;verticalAlign=top;align=center;fillColor=#00188D;shape=mxgraph.mscae.enterprise.plug_and_play" parent="1" vertex="1">
          <mxGeometry x="150" y="1240" width="40" height="50" as="geometry" />
        </mxCell>
        <mxCell id="ZEp8uU83ZjOSxmy_8YBV-22" value="RedTeam member01" style="shape=image;verticalLabelPosition=bottom;labelBackgroundColor=default;verticalAlign=top;aspect=fixed;imageAspect=0;image=https://www.pngall.com/wp-content/uploads/3/Hacker-PNG-High-Quality-Image.png;" parent="1" vertex="1">
          <mxGeometry x="435.5" y="1250" width="68.5" height="79.88" as="geometry" />
        </mxCell>
        <mxCell id="ZEp8uU83ZjOSxmy_8YBV-23" style="rounded=0;orthogonalLoop=1;jettySize=auto;html=1;entryX=0.69;entryY=1.27;entryDx=0;entryDy=0;entryPerimeter=0;fillColor=#f8cecc;strokeColor=#b85450;" parent="1" source="ZEp8uU83ZjOSxmy_8YBV-22" target="ZEp8uU83ZjOSxmy_8YBV-7" edge="1">
          <mxGeometry relative="1" as="geometry" />
        </mxCell>
        <mxCell id="ZEp8uU83ZjOSxmy_8YBV-25" value="RedTeam member02" style="shape=image;verticalLabelPosition=bottom;labelBackgroundColor=default;verticalAlign=top;aspect=fixed;imageAspect=0;image=https://www.pngall.com/wp-content/uploads/3/Hacker-PNG-High-Quality-Image.png;" parent="1" vertex="1">
          <mxGeometry x="592" y="1260" width="68.5" height="79.88" as="geometry" />
        </mxCell>
        <mxCell id="ZEp8uU83ZjOSxmy_8YBV-26" style="rounded=0;orthogonalLoop=1;jettySize=auto;html=1;entryX=0.73;entryY=1.27;entryDx=0;entryDy=0;entryPerimeter=0;fillColor=#f8cecc;strokeColor=#b85450;" parent="1" source="ZEp8uU83ZjOSxmy_8YBV-25" target="ZEp8uU83ZjOSxmy_8YBV-7" edge="1">
          <mxGeometry relative="1" as="geometry" />
        </mxCell>
        <mxCell id="ZEp8uU83ZjOSxmy_8YBV-27" value="" style="rounded=0;whiteSpace=wrap;html=1;rotation=90;fillColor=#1ba1e2;fontColor=#ffffff;strokeColor=#006EAF;" parent="1" vertex="1">
          <mxGeometry x="-450" y="1031.25" width="582.5" height="40" as="geometry" />
        </mxCell>
        <mxCell id="ZEp8uU83ZjOSxmy_8YBV-29" value="&lt;font style=&quot;font-size: 18px;&quot;&gt;Extended Look &amp;amp; how plugins tie in to the rest of the project&lt;/font&gt;" style="text;html=1;strokeColor=none;fillColor=none;align=center;verticalAlign=middle;whiteSpace=wrap;rounded=0;rotation=0;" parent="1" vertex="1">
          <mxGeometry x="-430" y="980" width="240" height="30" as="geometry" />
        </mxCell>
        <mxCell id="ZEp8uU83ZjOSxmy_8YBV-30" value="" style="rounded=0;whiteSpace=wrap;html=1;rotation=90;fillColor=#60a917;fontColor=#ffffff;strokeColor=#2D7600;" parent="1" vertex="1">
          <mxGeometry x="-540" y="230" width="762.5" height="40" as="geometry" />
        </mxCell>
        <mxCell id="ZEp8uU83ZjOSxmy_8YBV-31" value="&lt;font style=&quot;font-size: 18px;&quot;&gt;Server &amp;amp; Plugin Technical setup/loading&lt;/font&gt;" style="text;html=1;strokeColor=none;fillColor=none;align=center;verticalAlign=middle;whiteSpace=wrap;rounded=0;rotation=0;" parent="1" vertex="1">
          <mxGeometry x="-450" y="170" width="240" height="30" as="geometry" />
        </mxCell>
        <mxCell id="BwGgQY1d6kQw9cjaSGaH-3" style="rounded=0;orthogonalLoop=1;jettySize=auto;html=1;exitX=1;exitY=0.5;exitDx=0;exitDy=0;entryX=0;entryY=0.5;entryDx=0;entryDy=0;" edge="1" parent="1" source="BwGgQY1d6kQw9cjaSGaH-1" target="hdgHxHH95V__kCnSBClU-5">
          <mxGeometry relative="1" as="geometry" />
        </mxCell>
        <mxCell id="BwGgQY1d6kQw9cjaSGaH-1" value="Users/Sec/sensitive DB Instance" style="rounded=0;whiteSpace=wrap;html=1;" vertex="1" parent="1">
          <mxGeometry x="60" y="30" width="120" height="50" as="geometry" />
        </mxCell>
        <mxCell id="BwGgQY1d6kQw9cjaSGaH-4" style="rounded=0;orthogonalLoop=1;jettySize=auto;html=1;exitX=1;exitY=0.5;exitDx=0;exitDy=0;" edge="1" parent="1" source="BwGgQY1d6kQw9cjaSGaH-2">
          <mxGeometry relative="1" as="geometry">
            <mxPoint x="230" y="180" as="targetPoint" />
          </mxGeometry>
        </mxCell>
        <mxCell id="BwGgQY1d6kQw9cjaSGaH-2" value="DataDB Instance" style="rounded=0;whiteSpace=wrap;html=1;" vertex="1" parent="1">
          <mxGeometry x="60" y="105" width="120" height="50" as="geometry" />
        </mxCell>
        <mxCell id="BwGgQY1d6kQw9cjaSGaH-6" style="rounded=0;orthogonalLoop=1;jettySize=auto;html=1;entryX=0;entryY=0.5;entryDx=0;entryDy=0;dashed=1;" edge="1" parent="1" source="BwGgQY1d6kQw9cjaSGaH-5" target="hdgHxHH95V__kCnSBClU-6">
          <mxGeometry relative="1" as="geometry" />
        </mxCell>
        <mxCell id="BwGgQY1d6kQw9cjaSGaH-13" value="METHOD OF" style="edgeLabel;html=1;align=center;verticalAlign=middle;resizable=0;points=[];" vertex="1" connectable="0" parent="BwGgQY1d6kQw9cjaSGaH-6">
          <mxGeometry x="-0.037" y="2" relative="1" as="geometry">
            <mxPoint as="offset" />
          </mxGeometry>
        </mxCell>
        <mxCell id="BwGgQY1d6kQw9cjaSGaH-11" style="rounded=0;orthogonalLoop=1;jettySize=auto;html=1;entryX=0.5;entryY=0;entryDx=0;entryDy=0;dashed=1;dashPattern=12 12;" edge="1" parent="1" source="BwGgQY1d6kQw9cjaSGaH-5" target="BwGgQY1d6kQw9cjaSGaH-7">
          <mxGeometry relative="1" as="geometry" />
        </mxCell>
        <mxCell id="BwGgQY1d6kQw9cjaSGaH-5" value="DB Interface Method" style="rounded=0;whiteSpace=wrap;html=1;" vertex="1" parent="1">
          <mxGeometry x="130" y="260" width="120" height="40" as="geometry" />
        </mxCell>
        <mxCell id="BwGgQY1d6kQw9cjaSGaH-7" value="Plugin01&lt;br&gt;DB" style="image;html=1;image=img/lib/clip_art/computers/Database_128x128.png" vertex="1" parent="1">
          <mxGeometry x="100" y="540" width="40" height="40" as="geometry" />
        </mxCell>
        <mxCell id="BwGgQY1d6kQw9cjaSGaH-8" value="" style="image;html=1;image=img/lib/clip_art/computers/Database_128x128.png" vertex="1" parent="1">
          <mxGeometry x="345.5" y="545" width="40" height="40" as="geometry" />
        </mxCell>
        <mxCell id="BwGgQY1d6kQw9cjaSGaH-10" style="rounded=0;orthogonalLoop=1;jettySize=auto;html=1;entryX=0.583;entryY=1.05;entryDx=0;entryDy=0;entryPerimeter=0;dashed=1;dashPattern=12 12;" edge="1" parent="1" source="hdgHxHH95V__kCnSBClU-2" target="BwGgQY1d6kQw9cjaSGaH-5">
          <mxGeometry relative="1" as="geometry" />
        </mxCell>
        <mxCell id="BwGgQY1d6kQw9cjaSGaH-12" value="Calls" style="edgeLabel;html=1;align=center;verticalAlign=middle;resizable=0;points=[];" vertex="1" connectable="0" parent="BwGgQY1d6kQw9cjaSGaH-10">
          <mxGeometry x="-0.128" y="-6" relative="1" as="geometry">
            <mxPoint as="offset" />
          </mxGeometry>
        </mxCell>
      </root>
    </mxGraphModel>
  </diagram>
</mxfile>
